PathFileType	4	(X / Y / Z)	Demo_140333_11_September_2019	Demo_140333_11_September_2019.trc
DataRate	CameraRate	NumFrames	NumMarkers	Units	OrigDataRate	OrigDataStartFrame	OrigNumFrames
50	50	18	25	m	50	50	960
Frame#	Time		SpineBase		SpineMid		Neck		Head		ShoulderLeft		ElbowLeft		WristLeft		HandLeft		ShoulderRight		ElbowRight		WristRight		HandRight		HipLeft		KneeLeft		AnkleLeft		FootLeft		HipRight		KneeRight		AnkleRight		FootRight		SpineShoulder		HandTipLeft		LeftThumb		HandTipRight		ThumbRight		
X1	Y1	Z1	X2	Y2	Z2	X3	Y3	Z3	X4	Y4	Z4	X5	Y5	Z5	X6	Y6	Z6	X7	Y7	Z7	X8	Y8	Z8	X9	Y9	Z9	X10	Y10	Z10	X11	Y11	Z11	X12	Y12	Z12	X13	Y13	Z13	X14	Y14	Z14	X15	Y15	Z15	X16	Y16	Z16	X17	Y17	Z17	X18	Y18	Z18	X19	Y19	Z19	X20	Y20	Z20	X21	Y21	Z21	X22	Y22	Z22	X23	Y23	Z23	X24	Y24	Z24	X25	Y25	Z25	
1	49.966	-0.073	0.790	1.832	-0.077	1.081	1.788	-0.089	1.361	1.735	-0.079	1.502	1.699	-0.236	1.252	1.735	-0.304	1.005	1.797	-0.352	0.819	1.763	-0.351	0.755	1.746	0.081	1.245	1.723	0.213	1.030	1.763	0.348	0.890	1.756	0.381	0.826	1.730	-0.144	0.791	1.799	-0.122	0.493	1.870	-0.060	0.198	1.973	-0.064	0.157	1.857	0.001	0.797	1.798	0.056	0.484	1.759	0.081	0.140	1.778	0.075	0.135	1.693	-0.085	1.292	1.750	-0.350	0.686	1.752	-0.330	0.752	1.721	0.413	0.766	1.751	0.371	0.804	1.762
2	49.983	-0.073	0.790	1.832	-0.077	1.081	1.788	-0.089	1.361	1.735	-0.079	1.502	1.699	-0.236	1.252	1.735	-0.304	1.005	1.797	-0.352	0.819	1.763	-0.351	0.755	1.746	0.081	1.245	1.723	0.213	1.030	1.763	0.348	0.890	1.756	0.381	0.826	1.730	-0.144	0.791	1.799	-0.122	0.493	1.870	-0.060	0.198	1.973	-0.064	0.157	1.857	0.001	0.797	1.798	0.056	0.484	1.759	0.081	0.140	1.778	0.075	0.135	1.693	-0.085	1.292	1.750	-0.350	0.686	1.752	-0.330	0.752	1.721	0.413	0.766	1.751	0.371	0.804	1.762
3	50.000	-0.073	0.790	1.832	-0.078	1.081	1.789	-0.092	1.361	1.737	-0.083	1.502	1.701	-0.238	1.252	1.737	-0.298	0.992	1.768	-0.340	0.806	1.723	-0.325	0.742	1.680	0.078	1.246	1.724	0.210	1.032	1.762	0.338	0.889	1.747	0.365	0.819	1.719	-0.144	0.791	1.799	-0.122	0.493	1.871	-0.061	0.201	1.973	-0.064	0.160	1.855	0.001	0.798	1.799	0.059	0.485	1.760	0.088	0.142	1.777	0.081	0.137	1.688	-0.088	1.293	1.752	-0.314	0.669	1.673	-0.306	0.748	1.656	0.405	0.764	1.740	0.371	0.792	1.752
4	50.017	-0.073	0.790	1.832	-0.078	1.081	1.789	-0.092	1.361	1.737	-0.083	1.502	1.701	-0.238	1.252	1.737	-0.298	0.992	1.768	-0.340	0.806	1.723	-0.325	0.742	1.680	0.078	1.246	1.724	0.210	1.032	1.762	0.338	0.889	1.747	0.365	0.819	1.719	-0.144	0.791	1.799	-0.122	0.493	1.871	-0.061	0.201	1.973	-0.064	0.160	1.855	0.001	0.798	1.799	0.059	0.485	1.760	0.088	0.142	1.777	0.081	0.137	1.688	-0.088	1.293	1.752	-0.314	0.669	1.673	-0.306	0.748	1.656	0.405	0.764	1.740	0.371	0.792	1.752
5	50.033	-0.073	0.791	1.833	-0.079	1.081	1.790	-0.094	1.361	1.738	-0.087	1.503	1.702	-0.240	1.251	1.737	-0.293	0.985	1.750	-0.331	0.799	1.699	-0.304	0.738	1.636	0.076	1.247	1.725	0.207	1.032	1.760	0.327	0.886	1.741	0.349	0.810	1.714	-0.144	0.791	1.800	-0.122	0.493	1.871	-0.061	0.203	1.972	-0.064	0.162	1.854	0.001	0.798	1.799	0.061	0.485	1.761	0.092	0.144	1.777	0.086	0.139	1.682	-0.090	1.293	1.753	-0.294	0.662	1.633	-0.286	0.744	1.617	0.390	0.758	1.731	0.355	0.799	1.745
6	50.050	-0.073	0.791	1.833	-0.079	1.081	1.790	-0.094	1.361	1.738	-0.087	1.503	1.702	-0.240	1.251	1.737	-0.293	0.985	1.750	-0.331	0.799	1.699	-0.304	0.738	1.636	0.076	1.247	1.725	0.207	1.032	1.760	0.327	0.886	1.741	0.349	0.810	1.714	-0.144	0.791	1.800	-0.122	0.493	1.871	-0.061	0.203	1.972	-0.064	0.162	1.854	0.001	0.798	1.799	0.061	0.485	1.761	0.092	0.144	1.777	0.086	0.139	1.682	-0.090	1.293	1.753	-0.294	0.662	1.633	-0.286	0.744	1.617	0.390	0.758	1.731	0.355	0.799	1.745
7	50.067	-0.073	0.791	1.833	-0.079	1.081	1.790	-0.096	1.361	1.739	-0.090	1.503	1.703	-0.242	1.250	1.736	-0.280	0.981	1.726	-0.279	0.761	1.654	-0.242	0.707	1.657	0.073	1.247	1.726	0.198	1.030	1.757	0.308	0.877	1.738	0.323	0.799	1.715	-0.144	0.791	1.800	-0.117	0.489	1.873	-0.061	0.204	1.972	-0.064	0.163	1.853	0.001	0.798	1.799	0.063	0.486	1.762	0.096	0.141	1.778	0.091	0.136	1.689	-0.091	1.293	1.754	-0.251	0.655	1.624	-0.260	0.733	1.582	0.363	0.747	1.723	0.342	0.785	1.732
8	50.083	-0.073	0.791	1.833	-0.079	1.081	1.790	-0.096	1.361	1.739	-0.090	1.503	1.703	-0.242	1.250	1.736	-0.280	0.981	1.726	-0.279	0.761	1.654	-0.242	0.707	1.657	0.073	1.247	1.726	0.198	1.030	1.757	0.308	0.877	1.738	0.323	0.799	1.715	-0.144	0.791	1.800	-0.117	0.489	1.873	-0.061	0.204	1.972	-0.064	0.163	1.853	0.001	0.798	1.799	0.063	0.486	1.762	0.096	0.141	1.778	0.091	0.136	1.689	-0.091	1.293	1.754	-0.251	0.655	1.624	-0.260	0.733	1.582	0.363	0.747	1.723	0.342	0.785	1.732
9	50.100	-0.073	0.791	1.833	-0.079	1.081	1.790	-0.096	1.361	1.739	-0.090	1.503	1.703	-0.242	1.250	1.736	-0.280	0.981	1.726	-0.279	0.761	1.654	-0.242	0.707	1.657	0.073	1.247	1.726	0.198	1.030	1.757	0.308	0.877	1.738	0.323	0.799	1.715	-0.144	0.791	1.800	-0.117	0.489	1.873	-0.061	0.204	1.972	-0.064	0.163	1.853	0.001	0.798	1.799	0.063	0.486	1.762	0.096	0.141	1.778	0.091	0.136	1.689	-0.091	1.293	1.754	-0.251	0.655	1.624	-0.260	0.733	1.582	0.363	0.747	1.723	0.342	0.785	1.732
10	50.117	-0.073	0.791	1.833	-0.079	1.081	1.790	-0.096	1.361	1.739	-0.090	1.503	1.703	-0.242	1.250	1.736	-0.280	0.981	1.726	-0.279	0.761	1.654	-0.242	0.707	1.657	0.073	1.247	1.726	0.198	1.030	1.757	0.308	0.877	1.738	0.323	0.799	1.715	-0.144	0.791	1.800	-0.117	0.489	1.873	-0.061	0.204	1.972	-0.064	0.163	1.853	0.001	0.798	1.799	0.063	0.486	1.762	0.096	0.141	1.778	0.091	0.136	1.689	-0.091	1.293	1.754	-0.251	0.655	1.624	-0.260	0.733	1.582	0.363	0.747	1.723	0.342	0.785	1.732
11	50.133	-0.073	0.791	1.833	-0.080	1.081	1.791	-0.097	1.362	1.739	-0.092	1.503	1.703	-0.243	1.249	1.734	-0.272	0.978	1.713	-0.249	0.742	1.634	-0.215	0.695	1.653	0.071	1.247	1.726	0.191	1.028	1.754	0.296	0.871	1.737	0.307	0.791	1.718	-0.144	0.791	1.800	-0.114	0.487	1.875	-0.061	0.205	1.971	-0.064	0.164	1.853	0.002	0.798	1.799	0.065	0.487	1.763	0.100	0.137	1.779	0.097	0.132	1.696	-0.092	1.293	1.754	-0.230	0.652	1.620	-0.243	0.719	1.572	0.343	0.737	1.721	0.303	0.810	1.738
12	50.150	-0.073	0.791	1.833	-0.080	1.081	1.791	-0.097	1.362	1.739	-0.092	1.503	1.703	-0.243	1.249	1.734	-0.272	0.978	1.713	-0.249	0.742	1.634	-0.215	0.695	1.653	0.071	1.247	1.726	0.191	1.028	1.754	0.296	0.871	1.737	0.307	0.791	1.718	-0.144	0.791	1.800	-0.114	0.487	1.875	-0.061	0.205	1.971	-0.064	0.164	1.853	0.002	0.798	1.799	0.065	0.487	1.763	0.100	0.137	1.779	0.097	0.132	1.696	-0.092	1.293	1.754	-0.230	0.652	1.620	-0.243	0.719	1.572	0.343	0.737	1.721	0.303	0.810	1.738
13	50.167	-0.072	0.791	1.833	-0.080	1.081	1.791	-0.098	1.362	1.740	-0.094	1.502	1.704	-0.244	1.247	1.730	-0.265	0.976	1.704	-0.216	0.737	1.639	-0.199	0.688	1.651	0.070	1.248	1.727	0.184	1.027	1.753	0.287	0.866	1.737	0.297	0.784	1.722	-0.144	0.790	1.800	-0.111	0.485	1.876	-0.061	0.205	1.971	-0.064	0.164	1.852	0.002	0.799	1.799	0.067	0.487	1.764	0.102	0.139	1.780	0.100	0.134	1.693	-0.093	1.293	1.755	-0.216	0.651	1.622	-0.233	0.718	1.561	0.327	0.729	1.725	0.292	0.764	1.744
14	50.184	-0.072	0.791	1.833	-0.080	1.081	1.791	-0.098	1.362	1.740	-0.094	1.502	1.704	-0.244	1.247	1.730	-0.265	0.976	1.704	-0.216	0.737	1.639	-0.199	0.688	1.651	0.070	1.248	1.727	0.184	1.027	1.753	0.287	0.866	1.737	0.297	0.784	1.722	-0.144	0.790	1.800	-0.111	0.485	1.876	-0.061	0.205	1.971	-0.064	0.164	1.852	0.002	0.799	1.799	0.067	0.487	1.764	0.102	0.139	1.780	0.100	0.134	1.693	-0.093	1.293	1.755	-0.216	0.651	1.622	-0.233	0.718	1.561	0.327	0.729	1.725	0.292	0.764	1.744
15	50.200	-0.072	0.791	1.833	-0.081	1.081	1.791	-0.099	1.362	1.740	-0.095	1.502	1.704	-0.244	1.245	1.726	-0.259	0.975	1.697	-0.199	0.737	1.636	-0.190	0.685	1.649	0.069	1.248	1.727	0.179	1.025	1.752	0.281	0.863	1.738	0.292	0.779	1.727	-0.143	0.790	1.800	-0.109	0.483	1.877	-0.061	0.205	1.971	-0.064	0.164	1.852	0.003	0.799	1.799	0.069	0.487	1.766	0.104	0.141	1.781	0.102	0.136	1.689	-0.094	1.293	1.755	-0.207	0.653	1.625	-0.216	0.699	1.586	0.316	0.723	1.729	0.289	0.748	1.746
16	50.217	-0.072	0.791	1.833	-0.081	1.081	1.791	-0.099	1.362	1.740	-0.095	1.502	1.704	-0.244	1.245	1.726	-0.259	0.975	1.697	-0.199	0.737	1.636	-0.190	0.685	1.649	0.069	1.248	1.727	0.179	1.025	1.752	0.281	0.863	1.738	0.292	0.779	1.727	-0.143	0.790	1.800	-0.109	0.483	1.877	-0.061	0.205	1.971	-0.064	0.164	1.852	0.003	0.799	1.799	0.069	0.487	1.766	0.104	0.141	1.781	0.102	0.136	1.689	-0.094	1.293	1.755	-0.207	0.653	1.625	-0.216	0.699	1.586	0.316	0.723	1.729	0.289	0.748	1.746
17	50.234	-0.071	0.790	1.832	-0.081	1.081	1.791	-0.099	1.361	1.740	-0.097	1.502	1.704	-0.244	1.243	1.721	-0.255	0.974	1.693	-0.219	0.788	1.592	-0.213	0.746	1.573	0.068	1.248	1.727	0.176	1.023	1.751	0.277	0.860	1.740	0.289	0.776	1.735	-0.141	0.789	1.799	-0.108	0.482	1.878	-0.061	0.205	1.971	-0.063	0.164	1.852	0.003	0.799	1.799	0.071	0.488	1.767	0.105	0.143	1.782	0.104	0.138	1.686	-0.094	1.293	1.755	-0.195	0.691	1.558	-0.211	0.746	1.537	0.310	0.719	1.734	0.290	0.733	1.751
18	50.250	-0.071	0.790	1.832	-0.081	1.081	1.791	-0.099	1.361	1.740	-0.097	1.502	1.704	-0.244	1.243	1.721	-0.255	0.974	1.693	-0.219	0.788	1.592	-0.213	0.746	1.573	0.068	1.248	1.727	0.176	1.023	1.751	0.277	0.860	1.740	0.289	0.776	1.735	-0.141	0.789	1.799	-0.108	0.482	1.878	-0.061	0.205	1.971	-0.063	0.164	1.852	0.003	0.799	1.799	0.071	0.488	1.767	0.105	0.143	1.782	0.104	0.138	1.686	-0.094	1.293	1.755	-0.195	0.691	1.558	-0.211	0.746	1.537	0.310	0.719	1.734	0.290	0.733	1.751
